<svg width="375" height="87" viewBox="0 0 342 87" version="1.1" xmlns="http://www.w3.org/2000/svg" xmlns:xlink="http://www.w3.org/1999/xlink"><g stroke="none" stroke-width="1" fill="none" fill-rule="evenodd"><g id="Name" transform="translate(1.000000, 1.000000)" stroke="#B2B2B2" stroke-width="2"><path d="M47.090716,10.8468837 C44.573739,22.5029281 46.0321347,43.2339638 47.845862,46.1767033 C49.6595893,49.1194428 51.191453,44.5030959 50.3374203,39.2675937 C49.4833875,34.0320915 48.031304,32.9936909 46.0602011,28.9534427 C36.8951854,16.0449995 30.8455443,10.1897054 24.8239695,5.23041891 C18.8023948,0.27113237 12.5372246,-0.276427931 8.2764217,0.271132376 C4.01561877,0.818692683 1.27729633e-09,5.82352078 0,9.14065615 C-1.27729609e-09,12.4577915 1.00668485,13.6582935 4.01561877,15.8437687 C7.02455269,18.0292439 12.7220395,19.8202004 28.4418922,19.1651403 C44.1617449,18.5100802 57.07895,17.3518026 60.0086909,16.0449998" id="Path-1" class="SLanXSWw_0"/><path d="M55.2422392,30.9090909 C54.2694459,36.191936 54.8167007,38.3613042 56.6895142,42.2161583 C58.5623276,46.0710124 62.8667781,45.9135143 65.2810213,45.1445998 C70.5845188,41.435064 73.1311508,33.2015363 73.1311509,35.2371474 C73.131151,37.2727584 77.3337525,57.1964018 77.0811048,66.9961747 C76.8284571,76.7959477 74.2935251,83.0062238 70.5845188,84.6023039 C66.8755126,86.1983839 63.4884762,82.377112 61.1621393,78.4229217 C58.8358024,74.4687313 56.2579266,60.9147603 57.5442166,57.2121088 C58.8305067,53.5094572 64.5936584,50.3432454 64.5936584,50.3432454" id="Path-2" class="SLanXSWw_1"/><path d="M96.4171099,29.3384295 C95.4024817,27.2488038 93.3875233,27.2488038 91.9148297,27.2488038 C90.4421361,27.2488038 83.0357739,28.5144412 82.3785957,31.6102223 C80.9720964,36.4731297 96.41711,43.0618583 99.3339012,47.7606036 C100.823572,50.5402324 97.7441753,52.2766522 94.4275697,53.9828798 C91.1109641,55.6891074 82.3785957,56.9769861 81.2241648,55.6891074 C80.069734,54.4012286 79.8986841,53.369599 80.9720965,51.1868272 C82.0455088,49.0040553 81.7240653,49.5775082 83.026242,49.5775082" id="Path-3" class="SLanXSWw_2"/><path d="M107.388015,38.4314258 C106.387684,39.1701556 105.01137,41.0119491 104.251458,42.7605413 C103.564624,44.7326057 103.698072,46.7496819 104.382788,48.0936939 C105.067503,49.437706 106.211313,51.6528221 108.030895,52.6468115 C109.850477,53.6408008 112.672448,54.2058226 114.493589,53.616957 C117.068817,52.412748 117.283161,53.2982506 119.348024,50.330536 C121.412887,47.3628214 120.467504,46.1073324 120.441555,44.0643071 C120.415607,42.0212817 118.696845,39.8530715 117.115418,38.4314258 C115.533991,37.0097801 113.875224,36.0466764 112.216501,35.8466657 C110.557778,35.646655 109.057173,35.8466657 108.117212,37.4776964 C107.177251,39.1087271 108.363456,41.9863313 109.057173,44.0643067 C109.750891,46.1422821 113.731559,50.8256705 115.423489,51.3261002 C117.115418,51.82653 117.077633,53.2833924 121.096086,49.4377056 C125.11454,45.5920188 125.624114,41.0119494 126.201001,41.0119493 C126.777887,41.0119492 126.563216,44.0526563 130.404082,46.8947803 C132.528128,48.1826591 134.639995,50.6842396 141.516802,50.8256704 C148.39361,50.9671011 149.757744,47.535013 149.757744,47.535013" id="Path-4" class="SLanXSWw_3"/><path d="M186.020812,24.173685 C185.223831,29.1477991 184.003735,50.8209149 184.643968,50.8209139 C185.2842,50.8209129 192.234242,23.8408366 196.412986,22.9387618 C200.591731,22.036687 203.125303,43.1462625 203.407705,46.7703445 C203.690108,50.3944264 201.128499,54.4181839 200.287035,53.7096387 C191.718828,51.8959114 178.37562,36.6367719 179.410901,36.6367719 C180.446182,36.6367719 199.104538,47.5207245 207.733643,48.5840718 C208.47661,48.1937894 205.954867,39.9136608 205.954867,39.0833179 C205.954867,38.252975 207.402142,44.3418033 207.402142,43.0825205 C207.266046,32.3542572 210.412135,28.3386384 211.055015,27.3944411 C212.697696,26.7912775 213.471906,28.3386384 213.471906,28.3386384" id="Path-5" class="SLanXSWw_4"/><path d="M216.181554,51.2641422 C213.164676,38.9959318 218.601092,32.2647528 219.533639,32.2647528 C220.466186,32.2647528 222.206083,40.9261613 224.628492,41.6765413 C227.050902,42.4269214 231.233636,34.8029119 233.005529,35.8779094 C234.777422,36.9529069 236.446051,47.2998904 237.633314,48.0036695 C238.820577,48.7074487 238.822696,46.6781923 238.822696,46.6781923" id="Path-6" class="SLanXSWw_5"/><path d="M247.418204,34.8182319 C247.121653,33.3365359 245.759093,32.0895639 244.262584,31.3660601 C242.766074,30.6425564 240.272913,30.7867265 241.046594,31.7378081 C241.820274,32.6888896 247.046456,35.4118636 249.624332,41.4726254 C250.479564,45.7360762 249.624332,47.0583758 247.714755,47.7430911 C245.805179,48.4278065 244.262584,47.743091 243.527031,47.0583758 C242.791479,46.3736607 242.633671,45.2801287 241.946308,42.486724" id="Path-7" class="SLanXSWw_6"/><path d="M258.414044,15.18712 C254.459853,28.7405615 260.935786,46.4118259 260.227771,47.4524023 C259.519756,48.4929787 253.765606,29.8600416 254.459853,29.8600416 C255.154101,29.8600416 257.955978,36.7919221 263.986025,41.5203225 C268.506311,45.7181083 271.378621,49.4186416 272.257682,48.4929787 C273.603812,48.1000486 273.433295,39.3703275 277.247682,31.559385 C277.690629,30.6086913 277.465504,33.0553995 278.871829,33.1136301 C280.278154,33.1718608 280.113637,31.75585 281.992499,31.75585 C286.225235,31.8072169 290.435198,37.3619653 292.047697,39.905708 C293.660197,42.4494507 292.047698,44.7389603 290.362123,46.197356 C288.676548,47.6557516 286.182872,48.8465438 284.238344,48.4929787 C282.293817,48.1394136 280.698265,47.1606173 280.113636,44.7389603 C279.529008,42.3173034 281.194989,38.1878302 282.19373,36.8951854 C283.192471,35.6025406 283.13316,34.9856086 283.133161,34.9856086" id="Path-8" class="SLanXSWw_7"/><path d="M305.12295,48.9563397 C303.129203,48.7276582 302.500592,46.6029957 301.731677,44.6499952 C300.962763,42.6969946 302.115076,32.5395921 304.047953,33.0675588 C305.98083,33.5955256 305.12295,39.1839241 307.465174,42.6196795 C314.666069,48.8530764 322.521494,44.5382589 325.429283,39.183924 C325.429283,36.9587321 325.277809,33.8905018 323.24169,32.5019936 C321.20557,31.1134855 319.087246,32.0386382 318.057342,33.5955256 C317.027437,35.1524129 317.382158,38.0226091 318.82149,39.1839239 C320.260822,40.3452388 326.483097,40.2340322 326.845314,42.0684123 C327.20753,43.9027925 330.86433,61.1968341 331.267631,67.128034 C331.670932,73.0592339 330.041832,76.6051917 329.332636,78.0945985 C328.623441,79.5840053 327.207531,79.3379958 325.429283,78.7840796 C323.651035,78.2301635 323.24169,75.0909601 322.68036,69.1429924 C323.068524,62.9816151 324.437425,61.5910034 327.20753,57.0077004 C329.977635,52.4243973 335.168866,53.7451085 339.88032,50.3654867" id="Path-9" class="SLanXSWw_8"/></g></g><style>.SLanXSWw_0{stroke-dasharray:185 187;stroke-dashoffset:186;animation:SLanXSWw_draw 678ms ease-in-out 0ms forwards}.SLanXSWw_1{stroke-dasharray:131 133;stroke-dashoffset:132;animation:SLanXSWw_draw 481ms ease-in-out 678ms forwards}.SLanXSWw_2{stroke-dasharray:71 73;stroke-dashoffset:72;animation:SLanXSWw_draw 262ms ease-in-out 1159ms forwards}.SLanXSWw_3{stroke-dasharray:116 118;stroke-dashoffset:117;animation:SLanXSWw_draw 426ms ease-in-out 1422ms forwards}.SLanXSWw_4{stroke-dasharray:184 186;stroke-dashoffset:185;animation:SLanXSWw_draw 674ms ease-in-out 1848ms forwards}.SLanXSWw_5{stroke-dasharray:58 60;stroke-dashoffset:59;animation:SLanXSWw_draw 215ms ease-in-out 2523ms forwards}.SLanXSWw_6{stroke-dasharray:39 41;stroke-dashoffset:40;animation:SLanXSWw_draw 145ms ease-in-out 2738ms forwards}.SLanXSWw_7{stroke-dasharray:146 148;stroke-dashoffset:147;animation:SLanXSWw_draw 536ms ease-in-out 2884ms forwards}.SLanXSWw_8{stroke-dasharray:158 160;stroke-dashoffset:159;animation:SLanXSWw_draw 579ms ease-in-out 3420ms forwards}@keyframes SLanXSWw_draw{to{stroke-dashoffset:0}}@keyframes SLanXSWw_fade{0%,95.1219512195122%{stroke-opacity:1}to{stroke-opacity:0}}</style></svg>